<mxfile host="app.diagrams.net" modified="2024-04-23T06:43:30.847Z" agent="Mozilla/5.0 (Windows NT 10.0; Win64; x64) AppleWebKit/537.36 (KHTML, like Gecko) Chrome/123.0.0.0 Safari/537.36" version="24.2.8" etag="b4N7ujQR_s1ZjfwgjLrt" type="github">
  <diagram name="Page-1" id="fK61fSuBew-1slwbtf0n">
    <mxGraphModel>
      <root>
        <mxCell id="0" />
        <mxCell id="1" parent="0" />
      </root>
    </mxGraphModel>
  </diagram>
</mxfile>
